<svg viewBox="0 0 24 24"  xmlns="http://www.w3.org/2000/svg" style="display:none">

	<symbol viewBox="0 0 15 10" id="password-view">
		<path d="M14.9569 4.7975C14.935 4.74813 14.4056 3.57375 13.2288 2.39687C11.6606 0.82875 9.68 0 7.5 0C5.32 0 3.33937 0.82875 1.77125 2.39687C0.594369 3.57375 0.0624941 4.75 0.043119 4.7975C0.0146898 4.86144 0 4.93064 0 5.00062C0 5.0706 0.0146898 5.1398 0.043119 5.20375C0.0649941 5.25312 0.594369 6.42688 1.77125 7.60375C3.33937 9.17125 5.32 10 7.5 10C9.68 10 11.6606 9.17125 13.2288 7.60375C14.4056 6.42688 14.935 5.25312 14.9569 5.20375C14.9853 5.1398 15 5.0706 15 5.00062C15 4.93064 14.9853 4.86144 14.9569 4.7975ZM7.5 9C5.57625 9 3.89562 8.30062 2.50437 6.92188C1.93354 6.35417 1.44788 5.70683 1.06249 5C1.44774 4.29307 1.93341 3.64572 2.50437 3.07812C3.89562 1.69938 5.57625 1 7.5 1C9.42375 1 11.1044 1.69938 12.4956 3.07812C13.0676 3.64562 13.5543 4.29297 13.9406 5C13.49 5.84125 11.5269 9 7.5 9ZM7.5 2C6.90666 2 6.32664 2.17595 5.83329 2.50559C5.33994 2.83524 4.95542 3.30377 4.72836 3.85195C4.5013 4.40013 4.44189 5.00333 4.55764 5.58527C4.6734 6.16721 4.95912 6.70176 5.37868 7.12132C5.79824 7.54088 6.33278 7.8266 6.91473 7.94236C7.49667 8.05811 8.09987 7.9987 8.64805 7.77164C9.19623 7.54458 9.66477 7.16006 9.99441 6.66671C10.3241 6.17336 10.5 5.59334 10.5 5C10.4992 4.2046 10.1828 3.44202 9.62041 2.87959C9.05798 2.31716 8.2954 2.00083 7.5 2ZM7.5 7C7.10444 7 6.71776 6.8827 6.38886 6.66294C6.05996 6.44318 5.80361 6.13082 5.65224 5.76537C5.50086 5.39991 5.46126 4.99778 5.53843 4.60982C5.6156 4.22186 5.80608 3.86549 6.08578 3.58579C6.36549 3.30608 6.72186 3.1156 7.10982 3.03843C7.49778 2.96126 7.89991 3.00087 8.26537 3.15224C8.63082 3.30362 8.94318 3.55996 9.16294 3.88886C9.3827 4.21776 9.5 4.60444 9.5 5C9.5 5.53043 9.28929 6.03914 8.91421 6.41421C8.53914 6.78929 8.03043 7 7.5 7Z" fill="currentColor"/>
	</symbol>

	<symbol viewBox="0 0 23 25" id="logout">
		<path d="M16.7279 17.4321L21.2538 12.5025M21.2538 12.5025L16.7279 7.57284M21.2538 12.5025H7.23194M16.5799 1L4.11597 1.00329C2.39595 1.00493 1 2.4756 1 4.2897V20.7136C1 21.5852 1.32829 22.4211 1.91265 23.0374C2.497 23.6538 3.28956 24 4.11597 24H16.7279" stroke="currentColor" fill="none" stroke-width="2" stroke-linecap="round" stroke-linejoin="round"/>
	</symbol>

	<symbol viewBox="0 0 21 21" id="chat">
		<path d="M2.595 18.305L5.766 17.2475L6.321 17.525C7.596 18.161 9.0135 18.5 10.5 18.5C15.465 18.5 19.5 14.591 19.5 10.25C19.5 5.909 15.465 2 10.5 2C5.535 2 1.5 5.909 1.5 10.25C1.5 11.87 2.085 13.514 3.1605 14.9195L3.678 15.5945L2.5935 18.3035L2.595 18.305ZM1.5345 20.24C1.39876 20.2855 1.25284 20.2912 1.11397 20.2564C0.97511 20.2216 0.849102 20.1478 0.750836 20.0437C0.652569 19.9396 0.586149 19.8095 0.559421 19.6689C0.532693 19.5282 0.546774 19.3829 0.6 19.25L1.968 15.83C0.72 14.195 0 12.239 0 10.25C0 5.279 4.5 0.5 10.5 0.5C16.5 0.5 21 5.279 21 10.25C21 15.221 16.5 20 10.5 20C8.81726 20.0047 7.15666 19.6164 5.6505 18.866L1.5345 20.2385V20.24Z" fill="currentColor"/>
		<path d="M10.4988 11.4506C10.3412 11.4506 10.1852 11.4196 10.0396 11.3593C9.89402 11.299 9.76173 11.2106 9.6503 11.0992C9.53887 10.9877 9.45048 10.8554 9.39017 10.7098C9.32987 10.5643 9.29883 10.4082 9.29883 10.2506C9.29883 10.093 9.32987 9.937 9.39017 9.79141C9.45048 9.64582 9.53887 9.51353 9.6503 9.4021C9.76173 9.29067 9.89402 9.20228 10.0396 9.14197C10.1852 9.08167 10.3412 9.05063 10.4988 9.05063C10.8171 9.05063 11.1223 9.17706 11.3474 9.4021C11.5724 9.62714 11.6988 9.93237 11.6988 10.2506C11.6988 10.5689 11.5724 10.8741 11.3474 11.0992C11.1223 11.3242 10.8171 11.4506 10.4988 11.4506ZM14.9988 11.4506C14.8412 11.4506 14.6852 11.4196 14.5396 11.3593C14.394 11.299 14.2617 11.2106 14.1503 11.0992C14.0389 10.9877 13.9505 10.8554 13.8902 10.7098C13.8299 10.5643 13.7988 10.4082 13.7988 10.2506C13.7988 10.093 13.8299 9.937 13.8902 9.79141C13.9505 9.64582 14.0389 9.51353 14.1503 9.4021C14.2617 9.29067 14.394 9.20228 14.5396 9.14197C14.6852 9.08167 14.8412 9.05063 14.9988 9.05063C15.3171 9.05063 15.6223 9.17706 15.8474 9.4021C16.0724 9.62714 16.1988 9.93237 16.1988 10.2506C16.1988 10.5689 16.0724 10.8741 15.8474 11.0992C15.6223 11.3242 15.3171 11.4506 14.9988 11.4506ZM5.99883 11.4506C5.84124 11.4506 5.6852 11.4196 5.53961 11.3593C5.39402 11.299 5.26173 11.2106 5.1503 11.0992C5.03887 10.9877 4.95048 10.8554 4.89017 10.7098C4.82987 10.5643 4.79883 10.4082 4.79883 10.2506C4.79883 10.093 4.82987 9.937 4.89017 9.79141C4.95048 9.64582 5.03887 9.51353 5.1503 9.4021C5.26173 9.29067 5.39402 9.20228 5.53961 9.14197C5.6852 9.08167 5.84124 9.05063 5.99883 9.05063C6.31709 9.05063 6.62231 9.17706 6.84736 9.4021C7.0724 9.62714 7.19883 9.93237 7.19883 10.2506C7.19883 10.5689 7.0724 10.8741 6.84736 11.0992C6.62231 11.3242 6.31709 11.4506 5.99883 11.4506Z" fill="currentColor"/>
	</symbol>

	<symbol viewBox="0 0 18 20" id="notifications">
		<path d="M6 15V16C6 16.7956 6.31607 17.5587 6.87868 18.1213C7.44129 18.6839 8.20435 19 9 19C9.79565 19 10.5587 18.6839 11.1213 18.1213C11.6839 17.5587 12 16.7956 12 16V15M7 3C7 2.46957 7.21071 1.96086 7.58579 1.58579C7.96086 1.21071 8.46957 1 9 1C9.53043 1 10.0391 1.21071 10.4142 1.58579C10.7893 1.96086 11 2.46957 11 3C12.1484 3.54303 13.1274 4.38833 13.8321 5.4453C14.5367 6.50227 14.9404 7.73107 15 9V12C15.0753 12.6217 15.2954 13.2171 15.6428 13.7381C15.9902 14.2592 16.4551 14.6914 17 15H1C1.54494 14.6914 2.00981 14.2592 2.35719 13.7381C2.70457 13.2171 2.92474 12.6217 3 12V9C3.05956 7.73107 3.4633 6.50227 4.16795 5.4453C4.8726 4.38833 5.85159 3.54303 7 3Z" stroke="currentColor" fill="none" stroke-width="2" stroke-linecap="round" stroke-linejoin="round"/>
	</symbol>

	<symbol viewBox="0 0 20 20" id="search">
		<path d="M19.0002 19.0002L14.6572 14.6572M14.6572 14.6572C15.4001 13.9143 15.9894 13.0324 16.3914 12.0618C16.7935 11.0911 17.0004 10.0508 17.0004 9.00021C17.0004 7.9496 16.7935 6.90929 16.3914 5.93866C15.9894 4.96803 15.4001 4.08609 14.6572 3.34321C13.9143 2.60032 13.0324 2.01103 12.0618 1.60898C11.0911 1.20693 10.0508 1 9.00021 1C7.9496 1 6.90929 1.20693 5.93866 1.60898C4.96803 2.01103 4.08609 2.60032 3.34321 3.34321C1.84288 4.84354 1 6.87842 1 9.00021C1 11.122 1.84288 13.1569 3.34321 14.6572C4.84354 16.1575 6.87842 17.0004 9.00021 17.0004C11.122 17.0004 13.1569 16.1575 14.6572 14.6572Z" stroke="currentColor" fill="none" stroke-width="1.5" stroke-linecap="round" stroke-linejoin="round"/>
	</symbol>

	<symbol viewBox="0 0 20 10" id="drop-down-arrow">
		<path d="M1.00141 1L9.51242 9L18.0234 1" stroke="currentColor" fill="none" stroke-width="2" stroke-linecap="round" stroke-linejoin="round"/>
	</symbol>

	<symbol viewBox="0 0 21 20" id="filter">
		<path d="M19.5 9.99949H7.145M2.784 9.99949H1M2.784 9.99949C2.784 9.42132 3.01368 8.86683 3.42251 8.458C3.83134 8.04917 4.38583 7.81949 4.964 7.81949C5.54217 7.81949 6.09666 8.04917 6.50549 8.458C6.91432 8.86683 7.144 9.42132 7.144 9.99949C7.144 10.5777 6.91432 11.1322 6.50549 11.541C6.09666 11.9498 5.54217 12.1795 4.964 12.1795C4.38583 12.1795 3.83134 11.9498 3.42251 11.541C3.01368 11.1322 2.784 10.5777 2.784 9.99949ZM19.5 16.6065H13.752M13.752 16.6065C13.752 17.1848 13.5218 17.7399 13.1128 18.1488C12.7039 18.5578 12.1493 18.7875 11.571 18.7875C10.9928 18.7875 10.4383 18.5568 10.0295 18.148C9.62068 17.7392 9.391 17.1847 9.391 16.6065M13.752 16.6065C13.752 16.0282 13.5218 15.4741 13.1128 15.0651C12.7039 14.6562 12.1493 14.4265 11.571 14.4265C10.9928 14.4265 10.4383 14.6562 10.0295 15.065C9.62068 15.4738 9.391 16.0283 9.391 16.6065M9.391 16.6065H1M19.5 3.39249H16.395M12.034 3.39249H1M12.034 3.39249C12.034 2.81432 12.2637 2.25983 12.6725 1.851C13.0813 1.44217 13.6358 1.21249 14.214 1.21249C14.5003 1.21249 14.7838 1.26888 15.0483 1.37844C15.3127 1.48799 15.5531 1.64857 15.7555 1.851C15.9579 2.05343 16.1185 2.29375 16.2281 2.55824C16.3376 2.82273 16.394 3.10621 16.394 3.39249C16.394 3.67878 16.3376 3.96225 16.2281 4.22674C16.1185 4.49123 15.9579 4.73155 15.7555 4.93399C15.5531 5.13642 15.3127 5.297 15.0483 5.40655C14.7838 5.51611 14.5003 5.57249 14.214 5.57249C13.6358 5.57249 13.0813 5.34282 12.6725 4.93399C12.2637 4.52516 12.034 3.97067 12.034 3.39249Z" stroke="currentColor" fill="none" stroke-width="1.5" stroke-miterlimit="10" stroke-linecap="round"/>
	</symbol>

	<symbol viewBox="0 0 17 12" id="sort">
		<path d="M1 1H16M1 6H11M1 11H5" stroke="currentColor" fill="none" stroke-width="1.5" stroke-linecap="round" stroke-linejoin="round"/>
	</symbol>

	<symbol viewBox="0 0 14 16" id="import">
		<path d="M1 8.77778V13.4444C1 13.857 1.15804 14.2527 1.43934 14.5444C1.72064 14.8361 2.10218 15 2.5 15H11.5C11.8978 15 12.2794 14.8361 12.5607 14.5444C12.842 14.2527 13 13.857 13 13.4444V8.77778M7 1V10.3333M7 10.3333L4.375 7.61111M7 10.3333L9.625 7.61111" stroke="currentColor" fill="none" stroke-linecap="round" stroke-linejoin="round"/>
	</symbol>

	<symbol viewBox="0 0 18 18" id="plus">
		<path d="M9 1L9 17" stroke="currentColor" fill="none" stroke-width="1.5" stroke-linecap="round"/>
		<path d="M1 9.38095H17" stroke="currentColor" fill="none" stroke-width="1.5" stroke-linecap="round"/>
	</symbol>

	<symbol viewBox="0 0 23 5" id="etc">
		<circle cx="2.5" cy="2.5" r="2.5" fill="currentColor"/>
		<circle cx="11.5" cy="2.5" r="2.5" fill="currentColor"/>
		<circle cx="20.5" cy="2.5" r="2.5" fill="currentColor"/>
	</symbol>

	<symbol viewBox="0 0 25 25" id="close">
		<path d="M6.37134 6.03745L18.4468 18.1129" stroke="currentColor" fill="none" stroke-linecap="round"/>
		<path d="M6.65869 18.4007L18.7341 6.32523" stroke="currentColor" fill="none" stroke-linecap="round"/>
	</symbol>

	<symbol viewBox="0 0 32 32" id="play">
		<path d="M29.036 13.02L7.45602 2.2267C6.84596 1.92142 6.16796 1.77724 5.48647 1.80787C4.80498 1.83849 4.14264 2.04289 3.56242 2.40165C2.98219 2.7604 2.50336 3.26159 2.17144 3.85757C1.83951 4.45355 1.66553 5.12452 1.66602 5.8067V26.1934C1.66553 26.8755 1.83951 27.5465 2.17144 28.1425C2.50336 28.7385 2.98219 29.2397 3.56242 29.5984C4.14264 29.9572 4.80498 30.1616 5.48647 30.1922C6.16796 30.2228 6.84596 30.0786 7.45602 29.7734L29.036 18.98C29.589 18.7029 30.0539 18.2774 30.3788 17.7511C30.7037 17.2248 30.8758 16.6185 30.8758 16C30.8758 15.3815 30.7037 14.7752 30.3788 14.2489C30.0539 13.7227 29.589 13.2972 29.036 13.02Z" stroke="white" stroke-width="2" stroke-linecap="round" stroke-linejoin="round"/>
	</symbol>

	<symbol viewBox="0 0 16 12" id="arrow-next">
		<path d="M9.22844 11.3387C9.17033 11.2876 9.12423 11.227 9.09278 11.1602C9.06133 11.0934 9.04514 11.0219 9.04514 10.9496C9.04514 10.8773 9.06133 10.8058 9.09278 10.739C9.12423 10.6722 9.17033 10.6116 9.22844 10.5605L13.7869 6.5499L1.54588 6.5499C1.38012 6.5499 1.22116 6.49196 1.10395 6.38882C0.986743 6.28568 0.920898 6.1458 0.920898 5.99994C0.920898 5.85408 0.986743 5.71419 1.10395 5.61105C1.22116 5.50792 1.38012 5.44997 1.54588 5.44997L13.7869 5.44997L9.22844 1.43937C9.11117 1.33617 9.04528 1.19621 9.04528 1.05027C9.04528 0.904328 9.11117 0.764365 9.22844 0.66117C9.34571 0.557975 9.50476 0.5 9.67061 0.5C9.83646 0.5 9.99551 0.557975 10.1128 0.66117L15.7376 5.61084C15.7957 5.66191 15.8418 5.72257 15.8733 5.78933C15.9047 5.8561 15.9209 5.92766 15.9209 5.99994C15.9209 6.07221 15.9047 6.14377 15.8733 6.21054C15.8418 6.2773 15.7957 6.33796 15.7376 6.38904L10.1128 11.3387C10.0547 11.3898 9.98581 11.4304 9.90994 11.4581C9.83407 11.4858 9.75274 11.5 9.67061 11.5C9.58848 11.5 9.50715 11.4858 9.43128 11.4581C9.35541 11.4304 9.28648 11.3898 9.22844 11.3387Z" fill="currentColor"/>
	</symbol>

	<symbol viewBox="0 0 16 12" id="arrow-prev">
		<path d="M7.61336 0.661296C7.67147 0.712373 7.71756 0.773029 7.74902 0.839793C7.78047 0.906558 7.79666 0.978122 7.79666 1.0504C7.79666 1.12267 7.78047 1.19423 7.74902 1.261C7.71756 1.32776 7.67147 1.38842 7.61336 1.43949L3.05491 5.4501L15.2959 5.4501C15.4617 5.4501 15.6206 5.50804 15.7378 5.61118C15.8551 5.71432 15.9209 5.8542 15.9209 6.00006C15.9209 6.14592 15.8551 6.28581 15.7378 6.38895C15.6206 6.49208 15.4617 6.55003 15.2959 6.55003L3.05491 6.55003L7.61336 10.5606C7.73063 10.6638 7.79651 10.8038 7.79651 10.9497C7.79651 11.0957 7.73063 11.2356 7.61336 11.3388C7.49609 11.442 7.33703 11.5 7.17119 11.5C7.00534 11.5 6.84628 11.442 6.72901 11.3388L1.1042 6.38916C1.04609 6.33809 0.99999 6.27743 0.968538 6.21067C0.937087 6.1439 0.920898 6.07234 0.920898 6.00006C0.920898 5.92779 0.937087 5.85623 0.968538 5.78946C0.99999 5.7227 1.04609 5.66204 1.1042 5.61096L6.72901 0.661296C6.78706 0.610163 6.85598 0.569598 6.93186 0.541921C7.00773 0.514245 7.08905 0.5 7.17119 0.5C7.25332 0.5 7.33464 0.514245 7.41052 0.541921C7.48639 0.569598 7.55531 0.610163 7.61336 0.661296Z" fill="currentColor"/>
	</symbol>

	<symbol viewBox="0 0 24 24" id="check">
		<path d="M7 12L9.89075 14.8907V14.8907C9.95114 14.951 10.049 14.9511 10.1094 14.8907V14.8907L17 8" stroke="currentColor" fill="none" stroke-width="2" stroke-linecap="round" stroke-linejoin="round"/>
	</symbol>

</svg>