<svg width="20" height="24" viewBox="0 0 20 24" fill="none" xmlns="http://www.w3.org/2000/svg">
<path d="M9.92701 6.896C8.97901 6.896 7.51201 5.818 5.96701 5.856C3.92701 5.883 2.05701 7.039 1.00601 8.87C-1.11099 12.545 0.460013 17.973 2.52501 20.96C3.53801 22.414 4.73301 24.05 6.31701 23.999C7.83701 23.934 8.40701 23.012 10.252 23.012C12.083 23.012 12.602 23.999 14.212 23.96C15.849 23.934 16.888 22.48 17.888 21.012C19.044 19.324 19.524 17.687 19.55 17.597C19.511 17.584 16.368 16.376 16.33 12.74C16.304 9.7 18.81 8.246 18.927 8.181C17.498 6.091 15.304 5.857 14.537 5.805C12.537 5.649 10.862 6.896 9.92701 6.896ZM13.305 3.83C14.148 2.818 14.705 1.403 14.55 0C13.343 0.052 11.888 0.805 11.018 1.818C10.238 2.714 9.56401 4.156 9.74501 5.532C11.083 5.636 12.46 4.844 13.304 3.831" fill="#111111"/>
</svg>
