<svg width="22" height="23" viewBox="0 0 22 23" fill="none" xmlns="http://www.w3.org/2000/svg">
<path d="M7.55448 0.615414C5.28497 1.40273 3.32774 2.89708 1.97029 4.87897C0.61284 6.86086 -0.0732876 9.22582 0.0126914 11.6265C0.0986703 14.0271 0.952224 16.337 2.44798 18.2167C3.94373 20.0964 6.00285 21.4469 8.32287 22.0698C10.2038 22.5551 12.1744 22.5765 14.0653 22.1319C15.7783 21.7471 17.3621 20.9241 18.6614 19.7434C20.0138 18.4769 20.9954 16.8659 21.5007 15.0834C22.05 13.145 22.1477 11.1065 21.7864 9.12442H11.2243V13.5058H17.3412C17.2189 14.2046 16.9569 14.8715 16.5709 15.4667C16.1849 16.0619 15.6828 16.5731 15.0946 16.9697C14.3476 17.4638 13.5056 17.7963 12.6226 17.9457C11.737 18.1104 10.8286 18.1104 9.94304 17.9457C9.04545 17.7602 8.19634 17.3897 7.44979 16.8579C6.25045 16.009 5.34991 14.8029 4.87668 13.4117C4.39544 11.9946 4.39544 10.4582 4.87668 9.04101C5.21354 8.04764 5.7704 7.14319 6.50572 6.39515C7.3472 5.52339 8.41254 4.90025 9.58486 4.59411C10.7572 4.28796 11.9912 4.31063 13.1514 4.65963C14.0578 4.93787 14.8867 5.424 15.5719 6.07928C16.2616 5.39311 16.9502 4.70518 17.6375 4.01547C17.9924 3.64458 18.3793 3.29145 18.7289 2.91169C17.6829 1.9383 16.4551 1.18089 15.1159 0.682847C12.6771 -0.202675 10.0087 -0.226473 7.55448 0.615414Z" fill="white"/>
<path d="M7.55428 0.615376C10.0083 -0.227083 12.6767 -0.203912 15.1157 0.681034C16.4551 1.18246 17.6824 1.94352 18.7269 2.92053C18.372 3.30028 17.9976 3.65519 17.6355 4.0243C16.947 4.71165 16.2591 5.39663 15.5717 6.07924C14.8865 5.42396 14.0576 4.93783 13.1512 4.65959C11.9913 4.30937 10.7574 4.28539 9.58477 4.59028C8.41214 4.89518 7.34615 5.51717 6.50375 6.38801C5.76843 7.13605 5.21156 8.04051 4.8747 9.03388L1.19604 6.18571C2.51278 3.57456 4.79263 1.57723 7.55428 0.615376Z" fill="#E33629"/>
<path d="M0.22004 9.00725C0.417763 8.02732 0.746025 7.07835 1.19605 6.1857L4.8747 9.04096C4.39347 10.4581 4.39347 11.9945 4.8747 13.4117C3.64908 14.3581 2.42286 15.3093 1.19605 16.2652C0.06947 14.0227 -0.274116 11.4677 0.22004 9.00725Z" fill="#F8BD00"/>
<path d="M11.2241 9.12262H21.7862C22.1475 11.1047 22.0498 13.1432 21.5005 15.0816C20.9952 16.8641 20.0136 18.4752 18.6612 19.7416C17.474 18.8153 16.2815 17.896 15.0944 16.9697C15.6829 16.5727 16.1853 16.061 16.5713 15.4651C16.9574 14.8693 17.2192 14.2017 17.341 13.5022H11.2241C11.2223 12.0435 11.2241 10.5831 11.2241 9.12262Z" fill="#587DBD"/>
<path d="M1.19434 16.2652C2.42115 15.3188 3.64737 14.3676 4.87299 13.4117C5.34717 14.8033 6.24899 16.0095 7.44965 16.8579C8.19853 17.3872 9.04947 17.7546 9.94823 17.9368C10.8338 18.1015 11.7422 18.1015 12.6278 17.9368C13.5108 17.7874 14.3528 17.4549 15.0998 16.9608C16.2869 17.8871 17.4794 18.8064 18.6666 19.7327C17.3675 20.9141 15.7837 21.7377 14.0705 22.123C12.1796 22.5676 10.209 22.5462 8.32806 22.0609C6.84045 21.6637 5.45092 20.9635 4.24657 20.0042C2.97184 18.9921 1.9307 17.7167 1.19434 16.2652Z" fill="#319F43"/>
</svg>
